<?xml version="1.0" standalone="no"?>
<!DOCTYPE svg PUBLIC "-//W3C//DTD SVG 20010904//EN"
 "http://www.w3.org/TR/2001/REC-SVG-20010904/DTD/svg10.dtd">
<svg version="1.0" xmlns="http://www.w3.org/2000/svg"
 width="500.000000pt" height="500.000000pt" viewBox="0 0 500.000000 500.000000"
 preserveAspectRatio="xMidYMid meet">
<metadata>
Created by potrace 1.14, written by Peter Selinger 2001-2017
</metadata>
<g transform="translate(0.000000,500.000000) scale(0.100000,-0.100000)"
fill="#000000" stroke="none">
<path d="M2425 4812 c-2 -2 -45 -5 -97 -8 -116 -5 -145 -8 -283 -34 -178 -34
-377 -93 -485 -143 -25 -12 -47 -21 -50 -22 -16 -2 -150 -71 -150 -78 0 -5 -4
-6 -9 -2 -5 3 -15 -1 -23 -8 -7 -7 -35 -23 -61 -37 -26 -14 -57 -33 -68 -43
-10 -10 -19 -15 -19 -12 0 3 -25 -13 -55 -35 -30 -22 -55 -39 -55 -36 0 2 -15
-10 -34 -27 -18 -18 -49 -43 -67 -57 -41 -31 -210 -200 -264 -265 -22 -26 -45
-53 -50 -59 -52 -56 -187 -255 -236 -346 -13 -25 -26 -47 -29 -50 -12 -12
-108 -217 -110 -235 0 -3 -9 -25 -20 -50 -11 -25 -20 -47 -20 -50 0 -10 -5
-25 -14 -50 -17 -43 -19 -50 -20 -60 -1 -5 -9 -35 -19 -65 -9 -30 -19 -73 -23
-95 -3 -22 -8 -43 -9 -46 -4 -5 -29 -192 -40 -289 -10 -87 -5 -255 9 -350 4
-25 9 -58 10 -75 2 -16 8 -52 12 -80 4 -27 7 -53 6 -57 -1 -5 3 -8 9 -8 5 0 8
-4 4 -10 -4 -7 24 -148 39 -195 2 -5 5 -14 6 -20 13 -42 82 -230 100 -270 87
-193 208 -407 253 -447 11 -10 17 -18 13 -18 -8 0 74 -103 87 -108 4 -2 7 -7
7 -11 0 -22 309 -331 331 -331 5 0 9 -3 9 -8 0 -11 58 -34 69 -28 17 11 18
-19 2 -34 -24 -21 -131 -177 -131 -190 0 -5 -4 -10 -8 -10 -7 0 -8 -28 -3 -61
4 -22 41 -45 78 -48 60 -4 83 10 137 84 17 22 33 42 36 45 3 3 28 34 55 70 27
36 53 67 57 68 5 2 6 8 2 13 -3 5 -1 9 4 9 5 0 22 19 37 42 33 50 44 64 68 86
9 9 17 20 17 24 0 5 24 39 53 77 28 38 61 82 72 97 11 15 48 66 82 111 35 46
63 88 63 93 0 5 7 13 16 18 9 5 15 12 15 15 -5 37 9 42 69 28 3 -1 -2 -7 -11
-14 -9 -7 -42 -55 -74 -107 -32 -52 -64 -102 -72 -111 -7 -8 -13 -23 -13 -32
0 -9 -4 -17 -8 -17 -9 0 -37 -53 -30 -57 1 -1 -7 -12 -18 -25 -12 -13 -39 -54
-60 -91 -22 -38 -49 -85 -61 -105 -35 -59 -93 -171 -92 -178 0 -4 -4 -10 -11
-14 -6 -4 -13 -22 -16 -41 -7 -46 21 -76 80 -84 64 -10 93 8 137 85 58 100 59
101 108 91 2 -1 -3 -9 -12 -19 -34 -37 -20 -103 34 -154 16 -15 117 -50 189
-64 14 -3 45 -10 70 -16 25 -6 59 -12 75 -14 17 -3 46 -7 65 -10 174 -25 714
-24 840 1 14 3 39 7 55 10 38 5 59 10 115 25 25 7 52 14 60 15 8 2 17 4 20 6
3 1 10 3 15 3 15 2 76 25 113 44 19 9 40 28 47 42 14 27 13 79 -2 103 -16 26
-10 33 24 29 29 -4 40 -12 64 -51 15 -25 33 -52 39 -58 6 -7 8 -13 4 -13 -4 0
6 -10 22 -22 16 -12 31 -25 34 -28 8 -9 87 -12 110 -5 11 4 27 20 35 36 17 32
18 39 3 56 -6 7 -7 13 -3 13 5 0 1 8 -7 18 -8 9 -18 24 -22 32 -3 8 -17 33
-31 55 -13 22 -34 59 -45 82 -12 24 -26 43 -31 43 -5 0 -9 5 -9 10 0 6 -12 29
-27 53 -15 23 -32 51 -38 62 -24 44 -40 70 -45 75 -12 12 -70 112 -70 121 0 6
-4 7 -10 4 -5 -3 -10 3 -10 14 0 12 -4 21 -10 21 -5 0 -10 5 -10 11 0 11 -74
122 -98 147 -17 19 -6 32 26 32 20 0 28 -5 29 -19 2 -19 99 -163 115 -169 4
-2 8 -10 8 -18 0 -7 9 -19 20 -26 11 -7 20 -17 20 -21 0 -5 6 -15 13 -22 18
-21 28 -34 70 -90 62 -83 71 -95 92 -118 12 -12 22 -26 24 -32 1 -5 16 -25 32
-42 16 -18 29 -37 29 -42 0 -5 3 -11 8 -13 4 -2 23 -23 42 -48 19 -25 39 -50
45 -57 12 -15 21 -26 65 -83 63 -81 82 -94 141 -96 42 -2 52 2 69 23 12 16 18
36 16 56 -3 37 -25 87 -38 87 -4 0 -8 7 -8 15 0 8 -3 15 -7 15 -5 0 -19 16
-32 36 -13 19 -37 49 -53 67 -15 18 -28 35 -28 39 0 4 16 12 35 19 19 7 35 16
35 20 0 4 9 11 20 14 11 4 18 11 15 16 -4 5 -2 9 4 9 13 0 241 227 241 240 0
5 4 10 8 10 4 0 26 24 47 52 22 29 43 54 48 56 4 2 7 9 7 15 0 7 9 18 20 25
11 7 20 19 20 26 0 8 4 16 8 18 10 4 100 137 131 193 58 105 67 120 74 126 5
3 7 8 5 10 -5 8 35 89 44 89 5 0 7 4 4 8 -3 5 5 28 17 53 13 24 23 46 24 49 1
3 7 19 13 35 7 17 13 35 14 40 7 40 51 173 55 170 3 -1 6 11 7 28 1 36 9 84
18 107 3 8 8 33 10 55 3 22 7 50 10 62 2 11 7 43 11 70 4 26 9 59 11 73 6 31
5 312 0 360 -3 19 -7 60 -10 92 -3 31 -10 68 -16 82 -7 18 -6 26 1 26 8 0 8 5
-1 15 -6 8 -9 19 -6 24 4 5 2 12 -4 16 -6 4 -8 11 -4 16 3 6 1 22 -5 37 -5 15
-12 43 -15 62 -6 44 -10 61 -31 134 -9 32 -18 64 -20 70 -2 10 -6 21 -22 64
-3 9 -7 19 -7 22 -1 3 -5 11 -9 17 -5 7 -10 21 -12 31 -5 30 -113 241 -166
327 -28 44 -56 89 -62 100 -7 11 -19 27 -27 35 -8 8 -26 32 -40 52 -14 21 -28
38 -32 38 -5 0 -8 5 -8 10 0 6 -10 21 -22 34 -13 13 -46 50 -74 82 -85 98
-210 218 -294 284 -18 14 -44 34 -59 46 -14 11 -55 40 -91 64 -36 24 -68 48
-72 54 -4 6 -8 7 -8 3 0 -5 -15 2 -32 15 -18 13 -43 29 -56 35 -134 71 -241
124 -249 124 -5 1 -23 7 -42 15 -18 8 -39 14 -45 14 -7 0 -17 5 -24 12 -7 7
-12 8 -12 4 0 -5 -7 -3 -15 4 -8 7 -15 10 -15 6 0 -4 -13 0 -30 9 -16 8 -32
15 -35 15 -3 0 -6 0 -7 1 -2 0 -10 2 -18 4 -8 1 -42 10 -75 18 -33 9 -76 19
-95 22 -19 3 -42 8 -50 10 -8 2 -35 7 -60 11 -25 3 -56 8 -70 10 -81 12 -387
24 -395 16z m122 -194 c18 0 36 1 41 2 8 3 2 3 77 -5 58 -6 77 -9 120 -18 11
-2 38 -8 60 -12 22 -4 51 -9 65 -12 14 -3 34 -6 45 -8 11 -2 34 -7 50 -10 17
-4 37 -8 45 -10 8 -2 15 -4 15 -5 0 -1 9 -3 20 -5 33 -6 138 -38 180 -55 11
-4 58 -23 105 -41 47 -18 107 -46 133 -61 26 -15 50 -28 53 -28 2 0 21 -11 42
-24 20 -12 40 -24 44 -25 12 -2 180 -123 204 -146 12 -11 43 -38 69 -60 52
-44 206 -196 245 -242 14 -17 39 -47 55 -68 17 -21 35 -44 42 -50 6 -7 30 -41
52 -76 23 -35 49 -75 59 -88 9 -13 16 -27 15 -30 -1 -3 4 -13 10 -21 12 -15
19 -27 54 -95 43 -82 103 -233 128 -320 10 -33 21 -69 26 -80 5 -11 11 -36 13
-55 3 -19 5 -35 6 -35 2 0 9 -31 14 -60 2 -11 6 -33 9 -50 3 -16 8 -51 11 -77
3 -27 9 -69 12 -95 15 -105 8 -306 -16 -458 -5 -33 -12 -78 -15 -100 -3 -23
-8 -52 -11 -65 -3 -14 -7 -33 -7 -42 -1 -10 -5 -18 -9 -18 -4 0 -7 -8 -6 -17
0 -10 -10 -52 -22 -93 -12 -41 -23 -79 -24 -85 -1 -5 -4 -14 -7 -20 -4 -5 -12
-28 -19 -50 -7 -22 -19 -51 -27 -63 -8 -13 -12 -26 -9 -29 3 -3 -4 -19 -15
-34 -11 -16 -17 -29 -14 -29 4 0 0 -11 -9 -25 -9 -14 -14 -25 -11 -25 4 0 -3
-13 -14 -29 -11 -15 -18 -31 -14 -35 3 -3 1 -6 -5 -6 -7 0 -12 -6 -12 -13 0
-7 -6 -19 -12 -25 -7 -7 -13 -16 -13 -20 -1 -8 -115 -184 -125 -192 -4 -3 -18
-22 -32 -42 -13 -21 -28 -35 -31 -31 -4 3 -7 1 -7 -5 0 -18 -112 -135 -277
-290 -35 -32 -63 -64 -63 -70 0 -7 -4 -12 -10 -12 -5 0 -9 -3 -9 -7 4 -27 -7
-18 -55 43 -29 38 -51 74 -49 81 3 7 8 11 12 10 19 -6 220 182 283 265 20 26
39 44 42 41 3 -4 6 0 6 7 0 7 16 32 35 56 19 23 35 47 35 53 0 6 4 11 9 11 9
0 101 143 142 220 13 25 29 48 34 52 6 4 7 8 2 8 -4 0 3 17 16 38 13 20 27 50
31 67 4 16 11 32 15 35 10 7 61 142 61 161 0 9 3 19 8 23 4 4 8 12 8 17 1 5 2
10 4 12 1 1 3 11 5 22 2 11 6 31 9 45 7 29 13 60 21 114 4 21 9 48 11 60 19
95 25 428 10 521 -5 28 -8 62 -9 78 0 15 -3 27 -7 27 -3 0 -7 10 -7 23 -3 58
-31 184 -59 267 -9 25 -17 52 -19 60 -12 52 -130 302 -146 308 -5 2 -9 9 -9
14 0 24 -141 228 -218 317 -79 90 -282 288 -282 275 0 -3 -13 9 -29 25 -16 16
-32 27 -35 24 -3 -3 -8 2 -12 11 -3 9 -11 16 -18 16 -6 0 -23 11 -38 25 -15
14 -30 25 -34 25 -4 0 -30 15 -58 33 -28 19 -91 54 -141 78 -49 24 -92 46 -95
49 -10 10 -165 70 -181 70 -8 0 -19 4 -25 9 -9 8 -129 41 -169 46 -11 1 -20 3
-20 5 0 4 -98 18 -175 25 -103 10 -466 5 -490 -6 -3 -1 -18 -3 -35 -5 -16 -1
-32 -3 -35 -4 -3 -1 -12 -3 -20 -5 -8 -1 -42 -8 -75 -14 -183 -37 -398 -121
-583 -228 -40 -24 -77 -43 -81 -43 -5 0 -11 -4 -13 -8 -1 -4 -32 -28 -68 -52
-36 -25 -67 -47 -70 -50 -3 -3 -27 -23 -55 -45 -60 -47 -205 -194 -205 -206 0
-5 -7 -9 -16 -9 -8 0 -13 -4 -10 -9 4 -5 3 -11 -2 -13 -4 -1 -23 -23 -42 -48
-19 -25 -39 -48 -45 -52 -5 -4 -6 -8 -1 -8 6 0 0 -9 -11 -20 -12 -11 -30 -33
-39 -50 -10 -16 -22 -30 -26 -30 -4 0 -8 -5 -8 -10 0 -9 -47 -87 -60 -100 -10
-10 -120 -230 -115 -230 3 0 -1 -11 -10 -24 -21 -32 -106 -287 -99 -297 3 -5
0 -9 -7 -9 -7 0 -10 -3 -7 -6 4 -3 2 -20 -3 -37 -5 -18 -11 -57 -14 -87 -3
-30 -9 -86 -14 -125 -9 -70 -8 -316 2 -410 3 -27 8 -73 11 -101 3 -29 8 -67
12 -85 4 -19 7 -42 8 -51 0 -10 3 -18 6 -18 4 0 7 -6 7 -14 0 -24 57 -191 67
-198 6 -4 8 -8 4 -8 -4 0 2 -21 13 -48 27 -62 131 -276 139 -282 3 -3 23 -34
45 -70 38 -63 47 -76 72 -104 7 -8 9 -16 6 -20 -4 -3 -2 -6 4 -6 6 0 22 -17
35 -37 14 -21 40 -53 57 -70 17 -18 31 -35 31 -37 0 -6 148 -154 198 -198 23
-20 55 -42 72 -49 16 -8 30 -16 30 -20 0 -3 -15 -23 -33 -45 -19 -21 -39 -49
-46 -62 -16 -30 -33 -28 -54 7 -9 16 -37 46 -62 67 -25 22 -71 63 -102 91 -32
29 -62 53 -66 53 -5 0 -5 4 -2 10 3 5 -1 10 -9 10 -9 0 -16 3 -16 8 0 4 -18
27 -40 52 -22 25 -46 52 -53 60 -7 8 -29 35 -48 60 -19 25 -37 47 -41 48 -5 2
-8 8 -8 13 0 11 -42 72 -52 77 -5 2 -8 8 -8 13 0 5 -18 38 -39 73 -22 35 -37
67 -34 70 4 3 2 6 -4 6 -10 0 -26 36 -24 53 1 4 -4 7 -9 7 -6 0 -10 4 -10 9 0
5 -10 30 -22 57 -12 27 -23 51 -23 54 -1 3 -9 22 -18 43 -19 44 -76 219 -80
247 -2 11 -6 23 -10 26 -4 4 -7 18 -7 30 0 13 -4 33 -9 46 -11 28 -30 132 -38
208 -13 128 -5 496 13 590 3 14 7 43 10 65 3 21 8 44 12 50 4 5 7 16 9 24 1 8
5 26 9 40 4 14 7 29 6 34 -1 4 2 7 8 7 5 0 7 6 4 14 -3 8 -1 17 5 20 6 4 8 13
4 21 -3 8 1 15 8 15 7 0 10 3 7 6 -5 4 22 84 57 169 4 11 7 23 7 28 -1 4 3 7
9 7 5 0 7 5 4 10 -3 6 -1 10 4 10 6 0 11 5 11 12 0 26 125 251 163 292 9 11
17 24 17 29 0 4 6 15 13 22 14 16 19 23 67 85 19 25 42 52 52 61 10 9 18 22
18 28 0 7 5 9 10 6 6 -3 10 -1 10 4 0 28 265 269 370 337 25 16 48 33 52 39 4
6 8 6 8 1 0 -6 9 0 20 12 12 12 26 22 32 22 6 0 19 6 27 14 21 18 164 91 174
88 4 -1 7 3 7 9 0 5 4 8 9 5 5 -4 11 -2 13 2 3 8 195 82 222 86 6 1 16 5 22 8
6 4 21 9 35 12 13 3 49 13 79 22 30 9 62 17 70 19 8 1 26 5 40 8 33 9 79 18
110 22 14 2 25 4 25 5 0 1 16 3 35 5 19 2 45 6 57 8 12 3 64 9 115 13 51 3 95
8 96 10 2 1 11 0 20 -3 8 -4 30 -6 49 -5z m93 -313 c25 -2 65 -8 90 -11 25 -4
54 -8 65 -9 11 -1 20 -3 20 -5 0 -1 14 -3 30 -5 17 -2 51 -9 75 -15 25 -7 52
-14 60 -15 33 -7 172 -56 217 -76 134 -59 295 -147 313 -170 3 -3 16 -12 30
-19 39 -20 140 -100 193 -152 26 -26 60 -56 74 -68 14 -11 23 -20 20 -20 -3 0
13 -19 36 -43 23 -23 66 -74 94 -112 29 -39 56 -74 61 -80 15 -19 70 -110 93
-155 13 -25 28 -48 33 -51 5 -4 5 -12 2 -18 -4 -6 -3 -11 3 -11 10 0 27 -38
23 -52 -1 -5 2 -8 6 -8 5 0 15 -19 22 -42 8 -24 17 -48 22 -54 4 -6 9 -19 11
-30 2 -10 9 -31 15 -45 10 -26 34 -104 38 -124 1 -5 3 -14 4 -20 2 -5 4 -14 5
-20 11 -75 17 -110 21 -128 11 -54 17 -152 16 -277 0 -121 -6 -225 -11 -225
-1 0 -4 -22 -7 -50 -4 -55 -11 -100 -14 -100 -2 0 -4 -9 -6 -20 -2 -11 -5 -27
-7 -35 -2 -8 -7 -28 -11 -45 -4 -16 -11 -39 -16 -50 -4 -11 -18 -49 -30 -85
-35 -101 -162 -359 -183 -368 -4 -2 -7 -10 -7 -18 0 -8 -4 -14 -9 -14 -5 0
-12 -8 -16 -19 -3 -10 -17 -31 -30 -45 -13 -14 -22 -26 -19 -26 4 0 -14 -21
-96 -113 -51 -58 -81 -87 -171 -172 -35 -34 -71 -71 -79 -83 -15 -22 -16 -21
-85 70 -38 51 -73 96 -78 99 -8 6 8 22 23 24 54 8 90 19 90 26 0 5 7 9 15 9 8
0 15 5 15 11 0 5 4 8 9 5 14 -9 24 60 27 204 2 74 3 141 4 148 0 6 5 12 10 12
6 0 29 13 52 30 22 16 38 30 35 30 -6 0 10 23 43 60 8 9 17 23 20 31 3 8 5
218 5 468 1 281 4 456 10 458 6 2 30 14 55 27 60 30 83 71 88 160 4 73 4 76 2
111 0 11 0 27 0 35 3 43 -11 156 -21 185 -12 32 -79 82 -92 69 -9 -9 -48 16
-42 27 4 5 1 9 -6 9 -8 0 -9 3 0 13 6 8 8 17 4 21 -4 4 -9 26 -10 49 -2 23 -7
51 -12 62 -65 148 -115 200 -262 272 -92 46 -247 112 -274 117 -5 1 -37 11
-70 21 -33 10 -66 19 -73 21 -8 1 -21 6 -30 10 -9 4 -28 9 -42 11 -14 2 -34 7
-45 12 -30 13 -144 32 -209 35 -60 3 -106 -19 -106 -50 0 -18 -3 -18 -52 7
-70 36 -227 31 -259 -7 -10 -12 -15 -10 -33 13 -11 16 -28 30 -36 32 -35 11
-132 3 -225 -19 -55 -13 -107 -23 -115 -24 -8 -1 -17 -4 -20 -8 -3 -4 -17 -9
-30 -11 -60 -12 -263 -83 -349 -123 -51 -24 -97 -44 -101 -44 -4 0 -13 -7 -20
-15 -7 -9 -15 -13 -17 -11 -6 6 -36 -18 -94 -76 -80 -78 -109 -151 -113 -285
0 -29 -4 -54 -8 -54 -5 -1 -12 -3 -18 -4 -5 -1 -12 -3 -15 -4 -3 0 -6 0 -7 1
-2 1 -22 -9 -45 -22 -66 -36 -76 -68 -80 -245 -3 -161 5 -210 42 -248 23 -24
57 -52 65 -54 3 -1 17 -4 33 -8 16 -5 29 -16 32 -29 2 -11 4 -210 3 -441 -1
-231 2 -441 6 -466 8 -52 61 -116 114 -138 l29 -12 1 -152 c1 -84 3 -163 6
-177 7 -31 44 -64 76 -68 49 -6 59 -8 66 -15 4 -4 16 -7 26 -7 26 0 23 -9 -18
-55 -20 -22 -47 -57 -60 -78 -55 -84 -52 -84 -142 2 -197 187 -207 197 -278
291 -91 120 -212 336 -253 450 -7 19 -17 44 -22 55 -15 37 -62 193 -61 202 1
2 -4 17 -9 35 -35 123 -44 531 -15 685 2 10 7 40 10 68 4 27 12 55 18 62 6 7
7 13 4 13 -4 0 -2 8 3 18 6 11 12 32 15 48 8 41 78 218 90 226 6 4 7 10 4 14
-4 4 2 20 13 35 11 16 17 29 12 29 -4 0 -3 4 3 8 5 4 18 23 27 42 29 57 58
104 71 112 6 4 7 8 3 8 -7 0 0 10 31 45 6 7 12 16 12 20 0 8 19 31 48 57 12
12 22 25 22 30 0 4 8 16 18 27 144 152 224 228 286 270 12 8 23 18 26 21 8 11
103 74 140 94 19 10 43 25 53 34 10 9 24 17 32 18 8 1 28 12 44 23 16 12 34
21 39 21 6 0 32 11 59 24 26 13 57 26 68 28 11 1 26 9 33 16 12 11 34 16 55
13 4 0 7 4 7 11 0 6 2 9 6 6 3 -3 26 1 52 9 26 8 56 17 67 18 11 2 20 4 20 5
0 2 20 7 55 14 14 3 39 8 55 11 17 4 39 8 50 10 11 2 36 6 55 10 97 19 239 23
360 10z m-410 -575 c0 -11 -5 -20 -11 -20 -8 0 -8 -4 0 -14 14 -17 -5 -26 -69
-32 -25 -2 -56 -6 -70 -9 -14 -3 -38 -7 -55 -10 -30 -4 -63 -10 -112 -21 -16
-3 -39 -7 -53 -9 -50 -8 -100 -18 -145 -31 -5 -2 -20 -5 -33 -8 -13 -3 -32 -8
-43 -11 -33 -11 -21 4 21 25 22 11 40 18 40 14 0 -4 6 -2 13 4 16 13 283 95
307 94 3 0 11 4 18 10 6 6 12 8 12 6 0 -3 33 3 73 12 97 24 107 24 107 0z
m635 4 c39 -8 75 -16 80 -18 6 -1 37 -9 70 -16 70 -16 59 -13 111 -28 90 -26
195 -61 233 -78 42 -18 48 -40 7 -24 -13 5 -27 6 -30 3 -3 -4 -6 -1 -6 6 0 7
-5 9 -10 6 -6 -4 -16 -2 -23 4 -7 5 -22 8 -32 7 -11 -2 -24 0 -30 4 -5 4 -28
10 -50 14 -22 4 -51 9 -65 12 -14 2 -36 6 -50 8 -14 2 -25 5 -25 6 0 1 -16 3
-35 5 -20 2 -55 8 -78 14 -22 6 -69 9 -102 6 -34 -2 -59 -1 -56 3 3 5 1 25 -4
45 -9 44 -8 44 95 21z m-340 0 c19 -8 45 -55 41 -75 -6 -31 -20 -50 -44 -63
-22 -12 -31 -11 -59 3 -43 21 -48 62 -11 113 19 28 41 34 73 22z m225 -218 c0
-18 48 -49 66 -42 8 3 14 1 14 -4 0 -5 8 -9 18 -9 20 1 77 -8 101 -15 9 -3 30
-8 46 -11 17 -2 41 -7 55 -10 14 -3 63 -12 110 -21 47 -9 89 -19 95 -22 5 -3
18 -7 30 -9 37 -5 50 -9 69 -20 10 -6 26 -8 35 -6 9 2 26 -6 36 -19 17 -19 17
-20 2 -9 -20 16 -31 18 -167 27 -176 12 -592 3 -633 -14 -44 -18 -103 -88
-117 -138 -13 -46 -22 -50 -25 -12 -2 36 -15 68 -38 95 -25 28 -79 63 -105 68
-9 2 -17 4 -17 6 0 4 -441 6 -449 1 -5 -3 -52 -6 -105 -8 -133 -4 -147 -7
-197 -43 -25 -17 -50 -31 -57 -31 -8 0 -7 4 3 10 8 5 11 10 5 10 -9 0 53 43
65 45 3 0 15 6 28 13 12 7 22 10 22 7 0 -4 6 -3 13 2 6 4 17 8 22 9 6 1 24 5
40 9 17 3 39 8 50 10 11 2 31 6 45 10 14 3 41 8 60 11 19 3 46 7 60 10 14 3
40 7 59 10 19 2 37 6 41 9 9 5 69 17 93 19 9 0 17 3 17 6 0 3 15 7 33 8 17 1
45 12 60 23 l28 20 19 -23 c24 -31 90 -77 121 -84 13 -4 62 -7 108 -9 64 -2
90 1 111 14 48 29 76 55 95 89 20 34 35 42 35 18z m720 -211 c11 -13 10 -14
-4 -9 -9 3 -16 10 -16 15 0 13 6 11 20 -6z m-1267 -169 c38 -2 71 -7 74 -10 9
-8 7 -395 -1 -404 -4 -4 -36 -7 -70 -7 -41 0 -71 -6 -88 -17 -23 -15 -26 -15
-42 0 -14 14 -42 16 -194 16 -97 1 -179 4 -183 8 -6 10 -6 395 1 402 3 2 85 6
183 7 97 1 177 5 177 8 0 6 17 6 143 -3z m1080 -1 c15 -3 26 -9 23 -14 -3 -4
-6 -94 -7 -200 -1 -167 -4 -193 -18 -199 -9 -3 -142 -6 -296 -7 l-280 0 -1
198 c-1 132 3 200 10 206 6 5 122 10 258 12 137 2 248 7 248 11 0 6 6 5 63 -7z
m-721 -566 c7 -9 29 -24 48 -35 32 -17 62 -19 365 -22 340 -2 421 4 454 36 47
47 48 46 47 -28 0 -68 -1 -70 -26 -71 -238 -7 -261 -8 -320 -22 -39 -10 -76
-19 -88 -23 -7 -2 -14 -4 -17 -4 -17 -2 -189 -87 -230 -113 -63 -40 -79 -53
-129 -103 -57 -57 -85 -92 -78 -99 3 -3 1 -5 -4 -5 -6 0 -16 -16 -24 -35 -8
-19 -17 -35 -20 -35 -4 0 -15 -28 -25 -62 -16 -52 -20 -58 -26 -36 -11 43 -61
148 -70 148 -5 0 -9 6 -9 14 0 28 -198 215 -227 216 -7 0 -13 5 -13 10 0 6 -5
10 -11 10 -6 0 -23 8 -37 18 -24 17 -141 67 -202 87 -17 6 -80 17 -105 18 -17
2 -35 5 -40 9 -6 3 -61 5 -123 4 -65 0 -117 3 -120 9 -3 5 -7 28 -7 51 -1 22
-5 45 -8 51 -4 6 0 16 8 23 9 8 15 8 15 2 0 -6 15 -21 33 -34 31 -22 39 -23
259 -24 209 -2 228 0 247 17 20 19 21 18 48 -7 26 -24 32 -26 108 -21 117 7
143 13 184 44 46 35 58 51 65 87 l6 30 30 -45 c16 -24 35 -51 42 -60z m-962
-317 c0 -1 -16 -18 -35 -36 -19 -19 -35 -40 -35 -47 0 -22 -14 1 -18 29 -2 15
-9 30 -15 34 -20 13 7 24 57 23 25 0 46 -1 46 -3z m1898 -6 c2 -3 -28 -66 -32
-66 -9 0 -46 62 -41 69 4 8 64 5 73 -3z m-1515 -74 c27 -12 50 -22 52 -22 8 0
93 -56 123 -82 18 -15 32 -32 32 -39 0 -7 3 -9 7 -6 3 4 15 -8 27 -26 25 -39
46 -78 46 -84 0 -2 -44 -1 -97 2 -54 3 -144 6 -201 7 -93 1 -101 2 -88 17 48
55 63 153 33 223 -19 44 -14 45 66 10z m1110 11 c-3 -10 -9 -22 -13 -28 -7
-10 -5 -104 2 -135 2 -9 14 -33 26 -53 12 -21 22 -40 22 -41 0 -2 -62 -3 -137
-4 -76 0 -168 -3 -205 -7 -42 -4 -68 -3 -68 3 0 18 52 87 96 127 63 58 71 64
78 58 3 -4 6 -1 6 5 0 7 6 12 14 12 8 0 16 4 18 8 3 8 144 71 160 72 4 0 5 -8
1 -17z m192 -92 c3 -5 1 -12 -5 -16 -5 -3 -10 1 -10 9 0 18 6 21 15 7z m-1755
-101 c0 -4 13 -21 30 -38 16 -17 26 -33 22 -35 -6 -4 -39 -3 -64 2 -4 0 -6 9
-6 19 1 9 -1 29 -5 44 -6 22 -4 26 8 22 8 -4 15 -9 15 -14z m1956 -21 c0 -8
-5 -20 -10 -28 -9 -12 -8 -13 4 -6 11 6 12 5 4 -4 -6 -6 -25 -13 -42 -16 l-32
-4 18 24 c9 14 20 25 25 25 4 0 7 7 7 16 0 19 25 13 26 -7z m-973 -226 c7 -10
3 -13 -17 -13 -28 0 -33 13 -13 34 8 10 13 11 16 3 2 -7 8 -18 14 -24z m181
23 c-9 -24 51 -39 151 -38 103 2 97 6 110 -70 3 -21 13 -42 23 -47 14 -8 17
-27 19 -123 1 -110 6 -158 17 -177 3 -5 -6 -12 -22 -17 -15 -4 -29 -8 -32 -9
-36 -11 -88 -23 -100 -24 -30 -1 -82 -11 -92 -17 -6 -4 -9 -1 -6 7 3 8 18 15
34 16 39 3 104 33 104 49 0 7 5 14 11 16 31 10 34 236 4 282 -21 32 -64 56
-105 59 -17 1 -30 5 -30 10 0 4 -7 7 -15 7 -25 0 -95 39 -95 53 0 7 5 18 12
25 16 16 19 15 12 -2z m-374 -26 c0 -9 -14 -14 -32 -11 -5 0 -8 -3 -8 -8 0 -5
-21 -17 -47 -27 -27 -9 -52 -21 -57 -26 -6 -4 -17 -8 -26 -8 -25 0 -81 -53
-83 -77 -1 -13 -4 -23 -7 -23 -7 0 -4 -148 5 -192 4 -21 18 -49 30 -62 l24
-26 -46 5 c-71 7 -85 13 -74 34 6 10 6 23 1 31 -5 8 -6 18 -3 23 3 5 6 36 8
68 1 33 5 62 7 64 3 3 2 22 -1 43 -5 26 -2 42 9 55 8 10 16 22 16 27 1 6 3 12
4 15 5 10 8 26 9 56 l1 31 78 -6 c110 -9 132 -7 155 9 25 17 37 19 37 5z
m-744 -192 c-2 -24 -4 -66 -5 -95 -1 -39 -4 -51 -14 -47 -12 4 -14 49 -8 167
1 9 8 17 16 17 11 0 13 -10 11 -42z m231 -48 c-1 -49 -5 -90 -10 -90 -5 0 -4
-7 3 -15 10 -12 10 -15 0 -15 -9 0 -10 -3 -1 -14 9 -10 8 -15 -3 -19 -20 -8
-29 8 -18 30 5 10 9 62 8 116 -1 69 2 97 11 97 8 0 11 -26 10 -90z m1417 -17
c0 -68 3 -111 10 -115 8 -6 6 -11 -4 -17 -22 -15 -37 4 -33 41 7 60 9 113 4
122 -2 5 -4 24 -5 43 -1 23 3 33 14 33 12 0 15 -18 14 -107z m216 97 c0 -5 -2
-10 -4 -10 -3 0 -8 5 -11 10 -3 6 -1 10 4 10 6 0 11 -4 11 -10z m-3 -35 c0 -8
-4 -12 -9 -9 -5 3 -6 10 -3 15 9 13 12 11 12 -6z m-870 -72 c1 -44 -2 -65 -13
-74 -22 -18 -112 -15 -132 5 -11 11 -12 16 -4 16 9 0 10 5 2 19 -5 11 -6 22
-1 25 4 3 6 17 3 32 -6 34 5 40 80 39 l63 -1 2 -61z m869 -8 c1 -64 -8 -66
-11 -3 -1 37 1 58 8 58 1 0 3 -25 3 -55z m-705 -262 c-11 -22 -8 -72 8 -100 9
-18 8 -22 -6 -23 -127 -5 -383 -5 -400 2 -13 4 -23 4 -23 -1 0 -4 -11 -6 -25
-3 -15 2 -22 9 -18 16 7 11 10 20 17 61 7 43 16 51 54 50 21 -1 42 -4 47 -7
24 -14 328 1 344 18 10 10 11 3 2 -13z m-770 -274 c30 -5 70 -12 89 -15 19 -3
39 -9 44 -14 4 -4 16 -6 25 -3 11 3 12 2 4 -4 -7 -5 -61 -8 -120 -7 -127 2
-123 1 -123 14 0 8 19 37 26 40 1 0 26 -5 55 -11z m1138 -2 c30 -37 20 -41
-107 -42 -68 -1 -126 3 -128 7 -3 5 -2 7 3 6 9 -2 98 16 106 21 1 1 17 4 36 7
19 2 36 5 37 7 8 8 44 4 53 -6z m161 -257 c16 -29 6 -37 -37 -32 -21 2 -42 3
-48 3 -66 -6 -365 -4 -365 3 0 5 -6 4 -12 -1 -7 -5 -31 -8 -53 -6 -22 2 -47 3
-55 3 -29 -1 -285 -1 -305 -1 -11 1 -161 0 -333 -2 -173 -1 -316 1 -318 5 -3
4 0 17 6 28 11 20 18 20 760 20 742 0 749 0 760 -20z m-885 -241 c17 1 197 2
400 3 204 2 386 0 405 -3 l35 -5 -45 -13 c-25 -8 -55 -15 -67 -16 -12 -2 -26
-5 -30 -8 -7 -5 -39 -11 -118 -23 -62 -9 -103 -15 -125 -19 -126 -24 -500 -24
-642 0 -21 4 -48 8 -61 10 -97 12 -189 27 -215 34 -17 5 -33 7 -36 3 -3 -3 -6
-1 -6 4 0 5 -8 11 -17 12 -10 1 -27 4 -38 6 -11 2 -23 5 -27 5 -5 1 -8 4 -8 9
0 4 127 6 282 4 156 -1 297 -3 313 -3z"/>
</g>
</svg>
